<svg xmlns="http://www.w3.org/2000/svg" width="234" height="234" viewBox="0 0 234 234">
  <g id="avistamientos" transform="translate(-2)">
    <g id="dog-footprint" transform="translate(-78.27 -96.72)">
      <path id="Path_14" data-name="Path 14" d="M256.366,318.87c-19.058,0-38.476,22.2-38.476,44,0,.2,0,.4.02.6a33.722,33.722,0,0,0,.49,5.52l.056.277c0,.027.066.321.073.35a20.836,20.836,0,0,0,1.44,4.141,11.086,11.086,0,0,0,.49,1.031c.257.49.517.98.825,1.469s.62.962.874,1.3a10,10,0,0,0,.8,1.026,17.334,17.334,0,0,0,13.2,6.25,16.978,16.978,0,0,0,10.773-3.857,14.714,14.714,0,0,1,7.445-3.4,15.738,15.738,0,0,1,3.943,0,14.8,14.8,0,0,1,7.555,3.453,16.944,16.944,0,0,0,10.712,3.808,17.206,17.206,0,0,0,13.714-6.906c.162-.2.323-.434.394-.544.2-.287.407-.568.686-.994.279-.473.561-.967.842-1.5.125-.245.245-.512.333-.7a20.862,20.862,0,0,0,1.658-4.594l.071-.34.076-.37a33.842,33.842,0,0,0,.49-5.427c.015-.2.02-.4.02-.6C294.852,341.075,275.424,318.87,256.366,318.87Zm32.5,49.47a15.457,15.457,0,0,1-1.266,3.46l-.264.563c-.22.416-.456.83-.615,1.107s-.331.478-.558.8l-.206.284a11.785,11.785,0,0,1-9.38,4.788,11.446,11.446,0,0,1-7.2-2.544,19.854,19.854,0,0,0-25.945-.047,11.493,11.493,0,0,1-7.264,2.6,11.868,11.868,0,0,1-9.022-4.32,6.119,6.119,0,0,1-.49-.622c-.245-.333-.478-.681-.686-1.014-.245-.389-.441-.781-.708-1.288a2.077,2.077,0,0,1-.137-.289,3.324,3.324,0,0,0-.137-.335,15.028,15.028,0,0,1-1.085-3.056l-.091-.441a27.345,27.345,0,0,1-.4-4.641,3.815,3.815,0,0,0-.02-.475c0-18.71,16.952-38.5,32.978-38.5s32.988,19.8,32.988,38.505v.149a2.876,2.876,0,0,0-.02.326,27.342,27.342,0,0,1-.4,4.641Z" transform="translate(-59.366 -118.664)" fill="#fff"/>
      <path id="Path_16" data-name="Path 16" d="M153.016,251.52c-7.592,0-13.746,7.4-13.746,16.494s6.167,16.5,13.746,16.5,13.744-7.4,13.744-16.5S160.593,251.52,153.016,251.52Zm0,27.49c-4.548,0-8.248-4.932-8.248-11s3.7-10.989,8.248-10.989,8.246,4.935,8.246,11S157.571,279.01,153.016,279.01Z" transform="translate(0 -67.808)" fill="#fff"/>
      <path id="Path_18" data-name="Path 18" d="M265.266,161.72c-7.58,0-13.746,7.4-13.746,16.494s6.167,16.494,13.746,16.494,13.744-7.4,13.744-16.494S272.846,161.72,265.266,161.72Zm0,27.49c-4.548,0-8.248-4.932-8.248-11s3.7-11,8.248-11,8.246,4.935,8.246,11-3.7,11-8.246,11Z" transform="translate(-84.76)" fill="#fff"/>
      <path id="Path_20" data-name="Path 20" d="M399.974,161.72c-7.592,0-13.744,7.4-13.744,16.494s6.164,16.494,13.744,16.494,13.746-7.4,13.746-16.494S407.553,161.72,399.974,161.72Zm0,27.49c-4.548,0-8.246-4.932-8.246-11s3.7-11,8.246-11,8.241,4.935,8.241,11-3.693,11-8.241,11Z" transform="translate(-186.48)" fill="#fff"/>
      <path id="Path_22" data-name="Path 22" d="M512.224,251.52c-7.577,0-13.744,7.4-13.744,16.494s6.167,16.5,13.744,16.5,13.746-7.4,13.746-16.5S519.8,251.52,512.224,251.52Zm0,27.49c-4.548,0-8.246-4.932-8.246-11s3.691-10.989,8.246-10.989,8.248,4.935,8.248,11S516.771,279.01,512.224,279.01Z" transform="translate(-271.24 -67.808)" fill="#fff"/>
    </g>
    <g id="Ellipse_30" data-name="Ellipse 30" transform="translate(2)" fill="none" stroke="#fff" stroke-width="5">
      <circle cx="117" cy="117" r="117" stroke="none"/>
      <circle cx="117" cy="117" r="114.5" fill="none"/>
    </g>
  </g>
</svg>
