<svg id="familiar" xmlns="http://www.w3.org/2000/svg" width="234" height="234" viewBox="0 0 234 234">
  <g id="family" transform="translate(64 70)">
    <path id="Path_4" data-name="Path 4" d="M22.476,21.952A10.476,10.476,0,1,1,32.952,11.476,10.486,10.486,0,0,1,22.476,21.952Zm0-16.117a5.641,5.641,0,1,0,5.641,5.641A5.647,5.647,0,0,0,22.476,5.835ZM87.749,62.244a8.058,8.058,0,1,1,8.058-8.058A8.072,8.072,0,0,1,87.749,62.244Zm0-11.282a3.223,3.223,0,1,0,3.223,3.223A3.222,3.222,0,0,0,87.749,50.962ZM53.9,21.952A10.476,10.476,0,1,1,64.38,11.476,10.486,10.486,0,0,1,53.9,21.952Zm0-16.117a5.641,5.641,0,1,0,5.641,5.641A5.647,5.647,0,0,0,53.9,5.835Z" transform="translate(-1.553)" fill="#fff"/>
    <path id="Path_5" data-name="Path 5" d="M111.169,92.614l-1.418-7.792A16.051,16.051,0,0,0,95.834,71.7,18.413,18.413,0,0,1,79.652,55.24l-.878-8.4A17.681,17.681,0,0,0,50.819,34.36a2.418,2.418,0,0,0,2.837,3.916,12.843,12.843,0,0,1,20.307,9.066l.878,8.4a23.248,23.248,0,0,0,9.775,16.689V84.991a10.425,10.425,0,0,0,3.151,7.47l.886,13.627a2.416,2.416,0,0,0,2.409,2.264.974.974,0,0,0,.153-.008,2.422,2.422,0,0,0,2.264-2.563L92.82,95.2a10.634,10.634,0,0,0,2.281.258h2.264l-.645,10.323a2.418,2.418,0,0,0,2.264,2.563c.048,0,.1.008.153.008a2.416,2.416,0,0,0,2.409-2.264l.806-12.893a2.4,2.4,0,0,0-.653-1.805,2.45,2.45,0,0,0-1.773-.757H95.092a5.647,5.647,0,0,1-5.641-5.641V75.047a23.476,23.476,0,0,0,5.8,1.459A11.22,11.22,0,0,1,105,85.684l1.418,7.792a2.416,2.416,0,0,0,4.754-.862Z" transform="translate(-8.897 -5.825)" fill="#fff"/>
    <path id="Path_6" data-name="Path 6" d="M62.826,66.457a2.414,2.414,0,0,0-2.418,2.418v13.7H44.292a2.418,2.418,0,1,0-4.835,0,4.839,4.839,0,0,0,4.835,4.835h.177l1.442,18.72a2.417,2.417,0,0,0,2.409,2.232,1.427,1.427,0,0,0,.185-.008,2.418,2.418,0,0,0,2.224-2.595L49.32,87.409h6.06l-1.41,18.349a2.418,2.418,0,0,0,2.224,2.595,1.488,1.488,0,0,0,.185.008,2.422,2.422,0,0,0,2.409-2.232l1.442-18.72h.177a4.839,4.839,0,0,0,4.835-4.835v-13.7A2.414,2.414,0,0,0,62.826,66.457ZM39.255,46.843A17.675,17.675,0,0,0,4,48.68V72.1a7.274,7.274,0,0,0,4.835,6.842v22.169A7.241,7.241,0,0,0,20.923,106.5a7.241,7.241,0,0,0,12.088-5.391V80.156a2.418,2.418,0,1,0-4.835,0v20.952a2.418,2.418,0,1,1-4.835,0V72.1a2.418,2.418,0,1,0-4.835,0v29.01a2.418,2.418,0,1,1-4.835,0V76.933a2.414,2.414,0,0,0-2.418-2.418A2.425,2.425,0,0,1,8.835,72.1V48.68A12.837,12.837,0,0,1,34.428,47.23V72.1a2.418,2.418,0,1,0,4.835,0V47.093a1.316,1.316,0,0,0-.008-.25Z" transform="translate(0 -5.825)" fill="#fff"/>
  </g>
  <g id="Ellipse_27" data-name="Ellipse 27" fill="none" stroke="#fff" stroke-width="5">
    <circle cx="117" cy="117" r="117" stroke="none"/>
    <circle cx="117" cy="117" r="114.5" fill="none"/>
  </g>
</svg>
