<svg id="luna-de-miel" xmlns="http://www.w3.org/2000/svg" width="234" height="234" viewBox="0 0 234 234">
  <g id="Ellipse_3" data-name="Ellipse 3" fill="none" stroke="#fff" stroke-width="5">
    <circle cx="117" cy="117" r="117" stroke="none"/>
    <circle cx="117" cy="117" r="114.5" fill="none"/>
  </g>
  <path id="Path_2" data-name="Path 2" d="M-85.246,158.176a22.369,22.369,0,0,0-16.14,6.555,22.368,22.368,0,0,0-4.388,25.364c.366-.028.729-.071,1.1-.071a22.741,22.741,0,0,1,16.14,6.673,22.809,22.809,0,0,1,6.469,18.982l12.309,12.309,31.636-31.628a22.367,22.367,0,0,0,0-31.628,22.367,22.367,0,0,0-31.636,0,22.366,22.366,0,0,0-15.489-6.554Z" transform="translate(208.152 -87.429)" fill="#fff"/>
  <path id="Path_3" data-name="Path 3" d="M-51.913,201.511a18.835,18.835,0,0,1,0,26.636l-26.636,26.637-26.636-26.637a18.834,18.834,0,0,1,0-26.636,18.835,18.835,0,0,1,26.636,0,18.836,18.836,0,0,1,26.636,0Zm-23.336-41.753a5.886,5.886,0,0,1,0,8.324l-8.324,8.325-8.324-8.324a5.887,5.887,0,0,1,0-8.325,5.887,5.887,0,0,1,8.324,0,5.886,5.886,0,0,1,8.324,0Zm-19.578,17.054a4.12,4.12,0,0,1,0,5.827l-5.827,5.827-5.827-5.827a4.121,4.121,0,0,1,0-5.827,4.121,4.121,0,0,1,5.827,0,4.121,4.121,0,0,1,5.827,0Z" transform="translate(168.702 -89.409)" fill="#fff"/>
</svg>
