<svg id="montaña" xmlns="http://www.w3.org/2000/svg" width="234" height="234" viewBox="0 0 234 234">
  <g id="Ellipse_29" data-name="Ellipse 29" fill="none" stroke="#fff" stroke-width="5">
    <circle cx="117" cy="117" r="117" stroke="none"/>
    <circle cx="117" cy="117" r="114.5" fill="none"/>
  </g>
  <g id="ICONO" transform="translate(-1101 -2043)">
    <path id="Path_8" data-name="Path 8" d="M24.768,61.588H16.437a5.627,5.627,0,0,1-5.647-5.627V29.267a5.627,5.627,0,0,1,5.647-5.627h8.331a5.627,5.627,0,0,1,5.627,5.627V55.961a5.627,5.627,0,0,1-5.627,5.627ZM16.437,27.545A1.642,1.642,0,0,0,14.8,29.167V55.961a1.642,1.642,0,0,0,1.642,1.622h8.331a1.622,1.622,0,0,0,1.622-1.622V29.267a1.622,1.622,0,0,0-1.622-1.622Z" transform="translate(1164.827 2119.998)" fill="#fff"/>
    <path id="Path_9" data-name="Path 9" d="M15.444,110.186a6.188,6.188,0,0,1-5.567-8.711l6.008-13.4,1.722-19.845a2,2,0,0,1,3.985.34L19.85,88.759a2.463,2.463,0,0,1-.16.661l-6.228,13.7a2.155,2.155,0,0,0,1.983,3,2.143,2.143,0,0,0,2-1.381l6.168-15.76,1.642-17.122a2,2,0,0,1,3.7-.841L38.674,87.2a2.143,2.143,0,0,1,.28,1.041V99.572a2,2,0,1,0,4.005,0V85.755l-9.712-16.4a2,2,0,1,1,3.444-2L46.7,84.213a2,2,0,0,1,.28,1.021V99.612a6.008,6.008,0,1,1-12.015,0V88.939L28.681,78.445,27.6,89.8a1.8,1.8,0,0,1-.14.541l-6.248,16.02a6.168,6.168,0,0,1-5.767,3.825ZM56.3,64.127h-.16l-13.577-.38a2,2,0,0,1-1.442-.681l-7.55-8.631a2,2,0,0,1,3-2.643L43.54,59.8l12.716.36a1.282,1.282,0,0,0,1.141-.441,1.562,1.562,0,0,0,.481-1.141,1.6,1.6,0,0,0-1.5-1.6L45.923,56.4a2,2,0,0,1-1.462-.761L32.666,40.878a2,2,0,1,1,3.144-2.483L46.964,52.533l9.632.521a5.589,5.589,0,1,1-.3,11.174ZM14.343,65.609H11.279A7.149,7.149,0,0,1,4.13,58.48V38.194a7.149,7.149,0,0,1,7.149-7.149h3.064a7.149,7.149,0,0,1,7.129,7.149v3.665a2,2,0,1,1-4.005,0V38.194a3.124,3.124,0,0,0-3.124-3.144H11.279a3.144,3.144,0,0,0-3.144,3.144V58.48A3.144,3.144,0,0,0,11.279,61.6h3.064a3.124,3.124,0,0,0,3.124-3.124,2,2,0,0,1,4.005,0,7.149,7.149,0,0,1-7.129,7.129ZM26.759,31.786A10.313,10.313,0,1,1,37.072,21.473,10.313,10.313,0,0,1,26.759,31.786Zm0-16.621a6.308,6.308,0,1,0,6.308,6.308,6.308,6.308,0,0,0-6.308-6.308Z" transform="translate(1158.15 2107.486)" fill="#fff"/>
    <path id="Path_10" data-name="Path 10" d="M56.677,78.642a2,2,0,0,1-2-2V43.157a2,2,0,1,1,4.005,0V76.639A2,2,0,0,1,56.677,78.642Zm0-40.632a2,2,0,0,1-2-2V32a2,2,0,0,1,4.005,0v4.005A2,2,0,0,1,56.677,38.01ZM79.306,70.191a2,2,0,0,1-.6,0,123.838,123.838,0,0,0-16.02-4.005,2.03,2.03,0,1,1,.661-4.005,124.037,124.037,0,0,1,16.541,4.005,2.025,2.025,0,1,1-.6,4.005ZM3.009,83.007a2,2,0,0,1-1.642-3.164A40.952,40.952,0,0,1,11.7,70.612a2.044,2.044,0,1,1,2.2,3.444,36.206,36.206,0,0,0-9.252,8.21,2,2,0,0,1-1.642.741Z" transform="translate(1155.006 2126.374)" fill="#fff"/>
    <path id="Path_11" data-name="Path 11" d="M42.027,112a2,2,0,0,1-1.842-2.784c.14-.32,14.218-33.042,57.573-35.2a2.005,2.005,0,0,1,.2,4.005c-40.752,2-53.548,31.5-54.069,32.742A2,2,0,0,1,42.027,112Zm-15-73.914a2.031,2.031,0,0,1-1.462-3.464L53.8,7.792a2.056,2.056,0,0,1,2.9.12L73.087,26.456a2,2,0,1,1-3,2.643L55.064,12.138,28.39,37.53A2,2,0,0,1,27.028,38.091Z" transform="translate(1179.047 2103.565)" fill="#fff"/>
    <path id="Path_12" data-name="Path 12" d="M37.871,56.272a2,2,0,0,1-1.5-3.324L75.459,8.471a2,2,0,0,1,1.482-.681,2.163,2.163,0,0,1,1.5.661L89.677,20.766a2.006,2.006,0,1,1-2.964,2.7L76.981,12.8,39.373,55.531a2,2,0,0,1-1.5.741Z" transform="translate(1189.972 2104.108)" fill="#fff"/>
    <path id="Path_13" data-name="Path 13" d="M66.476,50.854a2,2,0,0,1-1.6-.781l-8.15-10.634a2,2,0,0,1,0-2.483l5.247-6.548L59.407,24.68a2,2,0,0,1,0-1.382l2.984-10.293a1.935,1.935,0,1,1,3.725,1.041l-2.784,9.612,2.784,6.228a2,2,0,0,1-.28,2l-5.026,6.288,7.209,9.412a2,2,0,0,1-1.582,3.2Zm35.465,3.3a2,2,0,0,1-1.442-.621l-4.526-4.826a2,2,0,0,1-.5-1.782l2.563-11.915L93.15,29.366a2,2,0,0,1-.461-1.642l2.2-13.457a2.028,2.028,0,1,1,4.005.641l-2,12.556,4.926,5.707a2,2,0,0,1,.441,1.722L99.618,46.708l3.785,4.005a2,2,0,0,1-1.462,3.364ZM24.763,14.007h-.2a2,2,0,0,1-1.8-2c0-3.585-5.086-4.586-5.147-4.606a2.037,2.037,0,0,1,.741-4.005A12.115,12.115,0,0,1,24.924,7a9.232,9.232,0,0,1,6.648-3.645,2.009,2.009,0,0,1,.32,4.005,6.228,6.228,0,0,0-5.167,4.966A2,2,0,0,1,24.763,14.007ZM37.9,22.1h-.2a2,2,0,0,1-1.8-2,3.1,3.1,0,0,0-2.383-2.964,2,2,0,1,1,.981-3.885,7.85,7.85,0,0,1,3.585,2.243,7.189,7.189,0,0,1,4.786-2.283,2,2,0,1,1,.32,3.985c-2.764.22-3.384,3.264-3.4,3.3A2,2,0,0,1,37.9,22.1Zm45.318,79.962a2,2,0,0,1-1.081-3.725,36.506,36.506,0,0,1,24.351-5.407,2.019,2.019,0,1,1-.521,4.005A32.621,32.621,0,0,0,84.2,101.8,2,2,0,0,1,83.218,102.059Zm-11.094,9.552a1.993,1.993,0,0,1-1.582-3.224,38.547,38.547,0,0,1,3.084-3.364,2,2,0,0,1,2.8,2.864,37.005,37.005,0,0,0-2.784,2.9,2,2,0,0,1-1.522.821Z" transform="translate(1169.998 2099.653)" fill="#fff"/>
  </g>
</svg>
