<svg id="playa" xmlns="http://www.w3.org/2000/svg" width="234" height="234" viewBox="0 0 234 234">
  <path id="Path_7" data-name="Path 7" d="M106.664,87.275l-1.738-2.064A3.16,3.16,0,0,0,100,85.143L81.773,105.8a7.394,7.394,0,0,1-5.54,2.631H63.376V66.7h9.17A1.586,1.586,0,0,0,74,65.457l1.6-5.715,1.6,5.715A1.569,1.569,0,0,0,78.659,66.7h21.4a1.586,1.586,0,0,0,1.452-1.247l3.057-10.886v-.023c.019-.045.019-.113.038-.159v-.023h0a.588.588,0,0,0,.019-.181v-.249a.587.587,0,0,0-.019-.181h0a.492.492,0,0,0-.038-.181c0-.023,0-.023-.019-.045-.019-.045-.019-.091-.038-.136,0-.023-.019-.023-.019-.045a.737.737,0,0,0-.076-.181s0-.023-.019-.023c-.019-.045-.057-.091-.076-.136,0,0,0-.023-.019-.023,0,0,0-.023-.019-.023-.038-.045-.057-.091-.1-.136h0l-.115-.136c-.019,0-.019-.023-.038-.023a.44.44,0,0,1-.1-.091c-.019,0-.019-.023-.038-.023a.466.466,0,0,0-.134-.091h0l-.115-.068L62.383,32.436h-.019c-.019,0-.019-.023-.038-.023s-.019,0-.038-.023c-.019,0-.038-.023-.038-.023-.019,0-.038-.023-.057-.023h-.057a.063.063,0,0,1-.057-.023.063.063,0,0,1-.057-.023h-.363a.126.126,0,0,0-.076.023.063.063,0,0,0-.057.023h-.038c-.019,0-.038.023-.057.023s-.038.023-.057.023-.019,0-.038.023c-.019,0-.038.023-.038.023h-.019L20.012,52.394l-.115.068h0a.81.81,0,0,0-.134.091c-.019,0-.019.023-.038.023a.44.44,0,0,0-.1.091c-.019,0-.019.023-.038.023l-.115.136h0c-.038.045-.057.091-.1.136,0,0,0,.023-.019.023,0,0,0,.023-.019.023-.019.045-.057.091-.076.136,0,0,0,.023-.019.023a1.46,1.46,0,0,0-.076.181c0,.023-.019.023-.019.045a.365.365,0,0,0-.038.136c0,.023,0,.023-.019.045-.019.068-.019.136-.038.181h0c0,.068-.019.113-.019.181v.249c0,.068.019.113.019.181h0v.023c.019.045.019.113.038.159v.023l3.057,10.886A1.569,1.569,0,0,0,23.6,66.7H45a1.586,1.586,0,0,0,1.452-1.247l1.6-5.715,1.6,5.715A1.569,1.569,0,0,0,51.112,66.7h9.17v41.73H43.471v-12.7h10.7a1.841,1.841,0,0,0,0-3.629H29.754a1.841,1.841,0,0,0,0,3.629h10.7v12.7H19.534c-1.949,0-3.534,1.882-3.534,4.2v2.495c0,2.313,1.586,4.2,3.534,4.2h6.228L20.757,131.2a2.121,2.121,0,0,0,.076,1.769,1.479,1.479,0,0,0,1.3.862h6.113a1.549,1.549,0,0,0,1.375-1l5.693-13.517h5.139v10.886H37.4a1.841,1.841,0,0,0,0,3.629h9.17a1.841,1.841,0,0,0,0-3.629H43.509V119.321H60.32v5.534c-4.394.567-7.641,3.493-7.641,7.167a1.7,1.7,0,0,0,1.528,1.814H69.489a1.7,1.7,0,0,0,1.528-1.814c0-3.651-3.248-6.6-7.641-7.167v-5.534h5.177l5.693,13.517a1.529,1.529,0,0,0,1.375,1h6.113a1.479,1.479,0,0,0,1.3-.862,2.121,2.121,0,0,0,.076-1.769l-5.043-11.884h.745A10.2,10.2,0,0,0,86.4,115.76l20.192-22.475a4.452,4.452,0,0,0,1.108-2.994A4.593,4.593,0,0,0,106.664,87.275ZM61.848,36.9,72.374,52.19H51.322Zm37.1,26.172H79.767l-2.044-7.257h23.268ZM76.328,52.19,66.834,38.423,95.317,52.19ZM56.862,38.423,47.368,52.19H28.379ZM43.929,63.076H24.749l-2.044-7.257H45.973Zm6.285-7.257H73.482l-2.044,7.257H52.258Zm6.438,74.388a8.348,8.348,0,0,1,10.392,0Zm-29.362,0H24.577l4.585-10.886h2.694Zm51.961,0H76.558l-4.585-10.886h2.694Zm25.236-39.553L84.294,113.129a7.385,7.385,0,0,1-5.483,2.585H19.534a.523.523,0,0,1-.478-.567v-2.495a.523.523,0,0,1,.478-.567h56.7a10.19,10.19,0,0,0,7.66-3.651l18.225-20.661a.442.442,0,0,1,.669,0l1.738,2.064a.655.655,0,0,1,.134.408A.814.814,0,0,1,104.487,90.654Z" transform="translate(59 38.7)" fill="#fff"/>
  <g id="Ellipse_28" data-name="Ellipse 28" fill="none" stroke="#fff" stroke-width="5">
    <circle cx="117" cy="117" r="117" stroke="none"/>
    <circle cx="117" cy="117" r="114.5" fill="none"/>
  </g>
</svg>
