<?xml version="1.0" encoding="UTF-8"?>
<svg id="Capa_2" data-name="Capa 2" xmlns="http://www.w3.org/2000/svg" viewBox="0 0 569.87 52.85">
  <defs>
    <style>
      .cls-1 {
        fill: #f1f1f1;
      }
    </style>
  </defs>
  <g id="Capa_1-2" data-name="Capa 1">
    <g>
      <path class="cls-1" d="m77.48,2.95c1.51-1.8,3.38-2.52,5.69-2.52,3.53,0,5.33,1.66,5.33,4.9v44.07c0,2.74-1.66,3.38-4.82,3.38s-4.82-.65-4.82-3.38V15.27l-28.73,34.78c-1.66,1.94-3.17,2.74-5.69,2.74-2.74,0-4.54-.86-6.05-2.74L9.58,15.27v34.13c0,2.74-1.66,3.38-4.82,3.38s-4.75-.65-4.75-3.38V5.33C0,2.09,1.8.43,5.26.43c2.45,0,4.25.86,5.69,2.52l33.12,39.96L77.48,2.95Z"/>
      <path class="cls-1" d="m111.83,49.4c0,2.74-1.66,3.38-4.82,3.38s-4.75-.65-4.75-3.38V3.38c0-2.74,1.66-3.38,4.75-3.38s4.82.65,4.82,3.38v46.01Z"/>
      <path class="cls-1" d="m135.18,21.46L173.12,1.01c1.37-.72,2.59-1.01,5.83-1.01,2.09,0,3.89,1.08,3.89,3.31,0,1.37-.72,2.52-2.3,3.31l-38.45,19.37,39.75,20.16c1.58.79,2.3,1.94,2.3,3.31,0,2.23-1.8,3.31-3.89,3.31-3.24,0-4.46-.29-5.83-1.01l-39.24-20.81v18.43c0,2.74-1.66,3.38-4.82,3.38s-4.75-.65-4.75-3.38V3.38c0-2.74,1.66-3.38,4.75-3.38s4.82.65,4.82,3.38v18.07Z"/>
      <path class="cls-1" d="m202.44,30.67v8.42c0,3.1,3.67,5.62,12.1,5.62h34.42c2.3,0,2.81,1.3,2.81,3.89s-.5,3.89-2.81,3.89h-34.71c-14.19,0-21.31-4.46-21.31-13.39V13.68c0-9,7.13-13.39,21.31-13.39h10.73c2.23,0,2.74,1.3,2.74,3.89s-.5,3.89-2.74,3.89h-10.44c-8.42,0-12.1,2.45-12.1,5.62v9.22h46.73c2.3,0,2.81,1.3,2.81,3.89s-.5,3.89-2.81,3.89h-46.73Z"/>
      <path class="cls-1" d="m270.5,43.85c4.03,0,5.69,1.37,5.69,4.46s-1.66,4.46-5.69,4.46-5.69-1.37-5.69-4.46,1.66-4.46,5.69-4.46Z"/>
      <path class="cls-1" d="m310.69,50.26l-31.68-44.79c-.36-.58-.58-1.08-.58-1.66,0-2.09,3.02-3.82,5.54-3.82,1.22,0,2.74.43,3.46,1.51l29.09,41.84L345.32,1.51c.65-1.01,1.8-1.51,3.17-1.51,2.45,0,5.4,1.66,5.4,3.89,0,.58-.22,1.15-.58,1.58l-31.32,44.79c-1.15,1.66-2.88,2.52-5.69,2.52s-4.46-.86-5.62-2.52Z"/>
      <path class="cls-1" d="m371.47,30.67v8.42c0,3.1,3.67,5.62,12.1,5.62h34.42c2.3,0,2.81,1.3,2.81,3.89s-.5,3.89-2.81,3.89h-34.71c-14.18,0-21.31-4.46-21.31-13.39V13.68c0-9,7.13-13.39,21.31-13.39h10.73c2.23,0,2.74,1.3,2.74,3.89s-.5,3.89-2.74,3.89h-10.44c-8.42,0-12.1,2.45-12.1,5.62v9.22h46.73c2.3,0,2.81,1.3,2.81,3.89s-.5,3.89-2.81,3.89h-46.73Z"/>
      <path class="cls-1" d="m497.71,39.1c0,9.14-7.49,13.39-21.39,13.39h-21.82c-14.18,0-21.31-4.46-21.31-13.39V13.68c0-9,7.13-13.39,21.31-13.39h10.15c2.3,0,2.81,1.3,2.81,3.89s-.5,3.89-2.81,3.89h-9.87c-8.42,0-12.1,2.45-12.1,5.62v25.42c0,3.1,3.67,5.62,12.1,5.62h21.24c8.42,0,12.02-2.52,12.02-5.62v-12.82c0-2.81,1.58-3.38,4.75-3.38s4.9.58,4.9,3.38v12.82Z"/>
      <path class="cls-1" d="m569.37,47.38l-31.4-44.79c-.08-.11-.17-.21-.26-.32l-.99,1.64c-1.21,1.99-2.44,3.98-3.67,5.97l14.57,21.38h-27.91c-1.64,2.6-3.28,5.19-4.93,7.78h38.17l8.5,12.39c.72,1.01,1.87,1.44,3.17,1.44,2.45,0,5.26-1.66,5.26-3.82,0-.5-.14-1.08-.5-1.66Z"/>
    </g>
  </g>
</svg>